<?xml version="1.0" encoding="UTF-8"?>
<svg version="1.1" xmlns="http://www.w3.org/2000/svg" width="141" height="82">
<path d="M0 0 C9.219375 -0.020625 18.43875 -0.04125 27.9375 -0.0625 C32.30923462 -0.07615601 32.30923462 -0.07615601 36.76928711 -0.09008789 C39.06363885 -0.09300681 41.35799111 -0.09555543 43.65234375 -0.09765625 C44.85636841 -0.10277222 46.06039307 -0.10788818 47.30090332 -0.11315918 C48.4377356 -0.11328003 49.57456787 -0.11340088 50.74584961 -0.11352539 C51.73846298 -0.115746 52.73107635 -0.11796661 53.75376892 -0.12025452 C56 0 56 0 57 1 C57.09311889 2.50418739 57.11746028 4.01271356 57.11352539 5.51977539 C57.11344986 6.48069595 57.11337433 7.44161652 57.11329651 8.43165588 C57.10813522 9.476436 57.10297394 10.52121613 57.09765625 11.59765625 C57.0962413 12.66165146 57.09482635 13.72564667 57.09336853 14.82188416 C57.08775064 18.23545083 57.07519511 21.648953 57.0625 25.0625 C57.05748731 27.37044176 57.052924 29.67838455 57.04882812 31.98632812 C57.03862433 37.65759721 57.01905243 43.32872601 57 49 C48.75 49 40.5 49 32 49 C32 51.64 32 54.28 32 57 C21.11 57 10.22 57 -1 57 C-0.67 38.19 -0.34 19.38 0 0 Z M8 9 C8 21.87 8 34.74 8 48 C13.28 48.33 18.56 48.66 24 49 C24 46.03 24 43.06 24 40 C31.92 40 39.84 40 48 40 C48 29.77 48 19.54 48 9 C34.8 9 21.6 9 8 9 Z " fill="#FFD600" transform="translate(70,11)"/>
<path d="M0 0 C18.48 0 36.96 0 56 0 C56 12.87 56 25.74 56 39 C44.45 39 32.9 39 21 39 C21 44.61 21 50.22 21 56 C20.67 56.33 20.34 56.66 20 57 C13.4 57 6.8 57 0 57 C0 38.19 0 19.38 0 0 Z M3 3 C3 19.83 3 36.66 3 54 C7.62 54 12.24 54 17 54 C17.33 48.39 17.66 42.78 18 37 C35.325 36.505 35.325 36.505 53 36 C53 31.05 53 26.1 53 21 C35.675 20.505 35.675 20.505 18 20 C18 19.67 18 19.34 18 19 C35.325 18.505 35.325 18.505 53 18 C53 13.05 53 8.1 53 3 C36.5 3 20 3 3 3 Z " fill="#FED600" transform="translate(13,11)"/>
<path d="M0 0 C2.64 0 5.28 0 8 0 C8 5.61 8 11.22 8 17 C5.69 17 3.38 17 1 17 C0 16 0 16 -0.09765625 12.40234375 C-0.0909822 10.91403133 -0.07902183 9.42573568 -0.0625 7.9375 C-0.05798828 7.17888672 -0.05347656 6.42027344 -0.04882812 5.63867188 C-0.0370068 3.75908129 -0.01907078 1.87953101 0 0 Z " fill="#FFD700" transform="translate(94,27)"/>
</svg>
